<?xml version="1.0" encoding="UTF-8"?>
<svg width="354px" height="260px" viewBox="0 0 354 260" version="1.1" xmlns="http://www.w3.org/2000/svg" xmlns:xlink="http://www.w3.org/1999/xlink">
    <!-- Generator: Sketch 64 (93537) - https://sketch.com -->
    <title>Shape</title>
    <desc>Created with Sketch.</desc>
    <g id="e-copy" stroke="none" stroke-width="1" fill="none" fill-rule="evenodd">
        <g id="Desktop-HD" transform="translate(-26.000000, -382.000000)" fill="#FFFFFF">
            <path d="M104.663203,533.134105 C108.495017,550.944004 117.070098,566.991419 129.001114,579.889021 L128.752551,579.928932 L130.314463,581.281948 C131.163538,582.165477 132.028695,583.033437 132.909463,583.885356 L133.182,583.764 L144.078,593.201 L144.059485,593.208849 L144.218,593.321 L145,594 L145.150281,593.983214 C161.372943,605.337841 181.121327,612 202.425742,612 C245.669396,612 282.50208,584.551378 296.451406,546.126524 L330.582573,533.937525 C320.156161,595.287996 266.746038,642 202.425742,642 C169.780633,642 139.945948,629.967145 117.114998,610.094746 L117.247449,610.071068 L103.228126,596.026995 C88.6921611,578.883735 78.5205212,557.923012 74.4292751,534.860893 L104.663203,533.134105 Z M96.495,599.992 L103.757,607.877 L46.2606043,628.803965 L49,621 L96.495,599.992 Z M202.425742,382 C241.558454,382 276.652709,399.29069 300.485424,426.648987 L299.456,427.041 L300,427 L288.837,431.096 L270.003508,438.288655 L269.785,438.089 L130.482,489.219 L296.638319,478.392846 L296.525523,478.078341 L327.458868,476.287041 L327.485,476.383 L379.425742,473 L379.425,506.216 L379.851485,507.386814 L331.795991,524.877269 L331.738,525.421 L297,537 L296.817,537.61 L151.281,590.579 L140.156,580.679 L297.559,511.057 L102.799847,520.710421 L102.830949,521.063596 L70,522 L70.05,522.332 L36.4257423,524 L36.344,523.772 L36.2606043,523.803965 L26,495.613186 L75.7342057,482.729871 L75.78,482.534 L110.085571,473.548589 C110.042018,473.653059 109.998638,473.75762 109.95543,473.862269 L264.722804,433.770612 C247.634186,420.144304 225.981066,412 202.425742,412 C164.690133,412 131.836343,432.901551 114.810072,463.758952 L78.5710845,472.387939 C95.3243462,419.961888 144.441807,382 202.425742,382 Z" id="Shape"></path>
        </g>
    </g>
</svg>